<?xml version="1.0" encoding="utf-8"?>
<!-- Generator: Adobe Illustrator 16.0.0, SVG Export Plug-In . SVG Version: 6.00 Build 0)  -->
<!DOCTYPE svg PUBLIC "-//W3C//DTD SVG 1.1//EN" "http://www.w3.org/Graphics/SVG/1.1/DTD/svg11.dtd">
<svg version="1.1" id="Layer_1" xmlns="http://www.w3.org/2000/svg" xmlns:xlink="http://www.w3.org/1999/xlink" x="0px" y="0px"
	 width="283.46px" height="226.77px" viewBox="0 0 283.46 226.77" enable-background="new 0 0 283.46 226.77" xml:space="preserve">
<path fill="#222222" d="M236.335,14.396c28.744,23.341,47.125,59.039,47.125,98.989s-18.381,75.604-47.125,98.989
	c-4.563,3.721-11.25,3.012-14.971-1.55s-3.012-11.25,1.55-14.971c24.006-19.487,39.286-49.162,39.286-82.469
	s-15.28-62.981-39.286-82.514c-4.562-3.72-5.226-10.408-1.55-14.97c3.676-4.563,10.408-5.227,14.971-1.551V14.396z M209.539,47.392
	c19.134,15.591,31.402,39.374,31.402,65.993s-12.269,50.402-31.402,65.993c-4.562,3.721-11.25,3.012-14.97-1.551
	c-3.721-4.562-3.012-11.249,1.55-14.97c14.395-11.692,23.563-29.498,23.563-49.473s-9.168-37.78-23.563-49.517
	c-4.562-3.721-5.227-10.408-1.55-14.971c3.676-4.562,10.408-5.227,14.97-1.55V47.392z M182.744,80.389
	c9.521,7.795,15.678,19.665,15.678,32.996s-6.156,25.201-15.678,32.996c-4.563,3.721-11.25,3.012-14.971-1.55
	s-3.012-11.25,1.551-14.97c4.783-3.898,7.839-9.833,7.839-16.477s-3.056-12.578-7.839-16.521c-4.563-3.721-5.227-10.408-1.551-14.97
	c3.676-4.563,10.408-5.227,14.971-1.551V80.389z M133.359,15.414c5.094,2.303,8.371,7.353,8.371,12.933v170.076
	c0,5.58-3.277,10.63-8.371,12.933c-5.093,2.304-11.072,1.373-15.236-2.348l-59.748-53.104H28.346
	C12.711,155.904,0,143.193,0,127.558V99.212c0-15.635,12.711-28.346,28.346-28.346h30.029l59.748-53.104
	C122.287,14.041,128.266,13.156,133.359,15.414z"/>
</svg>
