<?xml version="1.0" encoding="utf-8"?>
<!-- Generator: Adobe Illustrator 16.0.0, SVG Export Plug-In . SVG Version: 6.00 Build 0)  -->
<!DOCTYPE svg PUBLIC "-//W3C//DTD SVG 1.1//EN" "http://www.w3.org/Graphics/SVG/1.1/DTD/svg11.dtd">
<svg version="1.1" id="Layer_1" xmlns="http://www.w3.org/2000/svg" xmlns:xlink="http://www.w3.org/1999/xlink" x="0px" y="0px"
	 width="283.46px" height="226.77px" viewBox="0 0 283.46 226.77" enable-background="new 0 0 283.46 226.77" xml:space="preserve">
<path fill="#222222" d="M99.21,0c7.84,0,14.173,6.333,14.173,14.173v14.173h56.692V14.173C170.076,6.333,176.41,0,184.25,0
	s14.173,6.333,14.173,14.173v14.173h21.26c11.737,0,21.26,9.522,21.26,21.26v21.26H42.518v-21.26c0-11.737,9.522-21.26,21.26-21.26
	h21.26V14.173C85.038,6.333,91.371,0,99.21,0z M42.518,85.038h198.424V205.51c0,11.737-9.522,21.26-21.26,21.26H63.778
	c-11.737,0-21.26-9.522-21.26-21.26V85.038z M188.236,135.087c4.163-4.163,4.163-10.896,0-15.015
	c-4.164-4.118-10.896-4.163-15.016,0l-42.076,42.077l-20.817-20.817c-4.164-4.163-10.896-4.163-15.015,0
	c-4.119,4.164-4.164,10.896,0,15.015l28.346,28.347c4.164,4.163,10.896,4.163,15.015,0L188.236,135.087z"/>
</svg>
