<?xml version="1.0" encoding="utf-8"?>
<!-- Generator: Adobe Illustrator 16.0.0, SVG Export Plug-In . SVG Version: 6.00 Build 0)  -->
<!DOCTYPE svg PUBLIC "-//W3C//DTD SVG 1.1//EN" "http://www.w3.org/Graphics/SVG/1.1/DTD/svg11.dtd">
<svg version="1.1" id="Layer_1" xmlns="http://www.w3.org/2000/svg" xmlns:xlink="http://www.w3.org/1999/xlink" x="0px" y="0px"
	 width="283.46px" height="226.77px" viewBox="0 0 283.46 226.77" enable-background="new 0 0 283.46 226.77" xml:space="preserve">
<path fill="#222222" d="M109.84,21.26h63.779c1.948,0,3.543,1.594,3.543,3.543V42.52h-70.865V24.803
	C106.297,22.854,107.892,21.26,109.84,21.26z M85.038,24.803V42.52H56.691c-15.635,0-28.347,12.711-28.347,28.346v42.52h85.039
	h56.692h85.039v-42.52c0-15.635-12.711-28.346-28.346-28.346h-28.347V24.803C198.422,11.117,187.306,0,173.62,0H109.84
	C96.154,0,85.038,11.117,85.038,24.803z M255.115,127.558h-85.039v14.174c0,7.839-6.333,14.173-14.172,14.173h-28.347
	c-7.839,0-14.173-6.334-14.173-14.173v-14.174H28.345v56.692c0,15.635,12.712,28.347,28.347,28.347h170.078
	c15.635,0,28.346-12.712,28.346-28.347V127.558z"/>
</svg>
