<?xml version="1.0" encoding="utf-8"?>
<!-- Generator: Adobe Illustrator 16.0.0, SVG Export Plug-In . SVG Version: 6.00 Build 0)  -->
<!DOCTYPE svg PUBLIC "-//W3C//DTD SVG 1.1//EN" "http://www.w3.org/Graphics/SVG/1.1/DTD/svg11.dtd">
<svg version="1.1" id="Layer_1" xmlns="http://www.w3.org/2000/svg" xmlns:xlink="http://www.w3.org/1999/xlink" x="0px" y="0px"
	 width="283.46px" height="226.77px" viewBox="0 0 283.46 226.77" enable-background="new 0 0 283.46 226.77" xml:space="preserve">
<path fill="#222222" d="M77.951,0C66.214,0,56.691,9.523,56.691,21.26v184.25c0,11.737,9.522,21.26,21.259,21.26h42.52v-35.433
	c0-11.737,9.522-21.26,21.26-21.26s21.26,9.522,21.26,21.26v35.433h42.52c11.736,0,21.26-9.522,21.26-21.26V21.26
	c0-11.737-9.523-21.26-21.26-21.26H77.951z M85.038,106.298c0-3.897,3.189-7.086,7.086-7.086h14.173
	c3.897,0,7.086,3.188,7.086,7.086v14.174c0,3.897-3.189,7.086-7.086,7.086H92.124c-3.897,0-7.086-3.188-7.086-7.086V106.298z
	 M134.644,99.212h14.172c3.898,0,7.088,3.188,7.088,7.086v14.174c0,3.897-3.189,7.086-7.088,7.086h-14.172
	c-3.898,0-7.087-3.188-7.087-7.086v-14.174C127.557,102.401,130.746,99.212,134.644,99.212z M170.076,106.298
	c0-3.897,3.189-7.086,7.087-7.086h14.173c3.898,0,7.087,3.188,7.087,7.086v14.174c0,3.897-3.188,7.086-7.087,7.086h-14.173
	c-3.897,0-7.087-3.188-7.087-7.086V106.298z M92.124,42.52h14.173c3.897,0,7.086,3.188,7.086,7.086v14.173
	c0,3.898-3.189,7.087-7.086,7.087H92.124c-3.897,0-7.086-3.188-7.086-7.087V49.606C85.038,45.708,88.227,42.52,92.124,42.52z
	 M127.557,49.606c0-3.897,3.189-7.086,7.087-7.086h14.172c3.898,0,7.088,3.188,7.088,7.086v14.173c0,3.898-3.189,7.087-7.088,7.087
	h-14.172c-3.898,0-7.087-3.188-7.087-7.087V49.606z M177.163,42.52h14.173c3.898,0,7.087,3.188,7.087,7.086v14.173
	c0,3.898-3.188,7.087-7.087,7.087h-14.173c-3.897,0-7.087-3.188-7.087-7.087V49.606C170.076,45.708,173.265,42.52,177.163,42.52z"/>
</svg>
