<?xml version="1.0" encoding="utf-8"?>
<!-- Generator: Adobe Illustrator 16.0.0, SVG Export Plug-In . SVG Version: 6.00 Build 0)  -->
<!DOCTYPE svg PUBLIC "-//W3C//DTD SVG 1.1//EN" "http://www.w3.org/Graphics/SVG/1.1/DTD/svg11.dtd">
<svg version="1.1" id="Layer_1" xmlns="http://www.w3.org/2000/svg" xmlns:xlink="http://www.w3.org/1999/xlink" x="0px" y="0px"
	 width="283.46px" height="226.77px" viewBox="0 0 283.46 226.77" enable-background="new 0 0 283.46 226.77" xml:space="preserve">
<path fill="#222222" d="M85.038,56.693c0,31.311,25.382,56.692,56.692,56.692s56.692-25.382,56.692-56.692S173.041,0,141.73,0
	S85.038,25.382,85.038,56.693z M126.893,145.364l8.238,13.729l-14.749,54.877l-15.945-65.063c-0.886-3.588-4.341-5.936-7.928-5.005
	c-31.003,7.751-53.991,35.831-53.991,69.271c0,7.529,6.112,13.597,13.597,13.597h58.376c0,0,0,0,0.044,0h2.392h49.606h2.436
	c0,0,0,0,0.045,0h58.332c7.529,0,13.597-6.112,13.597-13.597c0-33.44-22.987-61.521-53.991-69.271
	c-3.587-0.886-7.042,1.462-7.928,5.005l-15.945,65.063l-14.748-54.877l8.238-13.729c2.834-4.739-0.576-10.719-6.068-10.719h-8.77
	h-8.725c-5.492,0-8.903,6.023-6.068,10.719H126.893z"/>
</svg>
