<?xml version="1.0" encoding="utf-8"?>
<!-- Generator: Adobe Illustrator 16.0.0, SVG Export Plug-In . SVG Version: 6.00 Build 0)  -->
<!DOCTYPE svg PUBLIC "-//W3C//DTD SVG 1.1//EN" "http://www.w3.org/Graphics/SVG/1.1/DTD/svg11.dtd">
<svg version="1.1" id="Layer_1" xmlns="http://www.w3.org/2000/svg" xmlns:xlink="http://www.w3.org/1999/xlink" x="0px" y="0px"
	 width="283.46px" height="226.77px" viewBox="0 0 283.46 226.77" enable-background="new 0 0 283.46 226.77" xml:space="preserve">
<path fill="#D91226" d="M112.719,30.472l15.414,26.221h-0.576H95.667c-9.789,0-17.717-7.929-17.717-17.717
	S85.879,21.26,95.667,21.26h0.974C103.241,21.26,109.397,24.759,112.719,30.472z M56.691,38.976c0,6.378,1.55,12.401,4.252,17.717
	H42.518c-7.839,0-14.173,6.333-14.173,14.173v28.347c0,7.839,6.334,14.173,14.173,14.173h198.424
	c7.839,0,14.173-6.334,14.173-14.173V70.865c0-7.84-6.334-14.173-14.173-14.173h-18.425c2.701-5.315,4.252-11.339,4.252-17.717
	C226.769,17.45,209.318,0,187.792,0h-0.975c-14.129,0-27.238,7.485-34.414,19.665L141.73,37.868l-10.674-18.159
	C123.881,7.486,110.771,0,96.642,0h-0.974C74.142,0,56.691,17.45,56.691,38.976z M205.509,38.976
	c0,9.788-7.928,17.717-17.717,17.717h-31.889h-0.576l15.413-26.221c3.366-5.713,9.478-9.212,16.077-9.212h0.975
	C197.582,21.26,205.509,29.188,205.509,38.976z M42.518,127.558v77.952c0,11.737,9.522,21.26,21.26,21.26h63.779v-99.212H42.518z
	 M155.904,226.77h63.778c11.737,0,21.26-9.522,21.26-21.26v-77.952h-85.038V226.77z"/>
</svg>
